<svg width="64" height="54" viewBox="0 0 64 54" fill="none" xmlns="http://www.w3.org/2000/svg">
<path d="M13.3617 13.462L26.7234 0L35.219 0C39.8916 0 43.7146 0.0511006 43.7146 0.113557C43.7146 0.176013 39.2683 4.70662 33.8339 10.1816C28.2907 15.7662 23.9532 20.2518 23.9532 20.3999C23.9532 20.6496 25.0245 20.6658 43.9766 20.702L64 20.7402V27.0754V33.4106L44.0515 33.4489C25.1705 33.4851 24.1029 33.5013 24.1029 33.751C24.1029 33.899 28.4083 38.3523 33.9088 43.8939C39.302 49.3273 43.7146 53.824 43.7146 53.8864C43.7146 53.9489 39.8923 54 35.2207 54H26.7267L13.3634 40.5389C6.01351 33.1352 -1.00432e-06 27.0431 -1.00432e-06 27.0008C-1.00432e-06 26.9585 6.01277 20.8661 13.3617 13.462Z" fill="#762929"/>
</svg>
